<?xml version="1.0" encoding="UTF-8"?>
<svg width="18px" height="18px" viewBox="0 0 18 18" version="1.1" xmlns="http://www.w3.org/2000/svg" xmlns:xlink="http://www.w3.org/1999/xlink">
    <g id="Kit-UI-🎨" stroke="none" stroke-width="1" fill="none" fill-rule="evenodd">
        <g id="Kit-UI" transform="translate(-1001.000000, -3666.000000)" fill="#FF414D" fill-rule="nonzero">
            <g id="Fields" transform="translate(140.000000, 3172.000000)">
                <g id="CTA" transform="translate(91.000000, 212.000000)">
                    <g id="Field-1" transform="translate(0.000000, 241.000000)">
                        <g id="05---Fields-/-Basic-/-Active-Copy" transform="translate(523.000000, 0.000000)">
                            <g id="02---Icons-/-Schedule" transform="translate(247.000000, 41.000000)">
                                <path d="M9,3.64153152e-13 C13.9704545,3.64153152e-13 18,4.02954545 18,9 C18,13.9704545 13.9704545,18 9,18 C4.02954545,18 -3.55271368e-15,13.9704545 -3.55271368e-15,9 C-3.55271368e-15,4.02954545 4.02954545,3.64153152e-13 9,3.64153152e-13 Z M9,1.63636364 C4.92954545,1.63636364 1.63636364,4.92954545 1.63636364,9 C1.63636364,13.0704545 4.92954545,16.3636364 9,16.3636364 C13.0704545,16.3636364 16.3636364,13.0704545 16.3636364,9 C16.3636364,4.92954545 13.0704545,1.63636364 9,1.63636364 Z M9,11.7204545 C9.56483668,11.7204545 10.0227273,12.1783451 10.0227273,12.7431818 C10.0227273,13.3080185 9.56483668,13.7659091 9,13.7659091 C8.43516332,13.7659091 7.97727273,13.3080185 7.97727273,12.7431818 C7.97727273,12.1783451 8.43516332,11.7204545 9,11.7204545 Z M9,4.5 C9.45,4.5 9.81818182,4.86818182 9.81818182,5.31818182 L9.81818182,5.31818182 L9.81818182,10.0227273 C9.81818182,10.4727273 9.45,10.8409091 9,10.8409091 C8.55,10.8409091 8.18181818,10.4727273 8.18181818,10.0227273 L8.18181818,10.0227273 L8.18181818,5.31818182 C8.18181818,4.86818182 8.55,4.5 9,4.5 Z" id="Combined-Shape"></path>
                            </g>
                        </g>
                    </g>
                </g>
            </g>
        </g>
    </g>
</svg>